# xmcd
#
# Track frame offsets:
# 150
# 19925
# 36359
# 48047
# 64438
# 75797
# 92765
# 106253
# 119721
# 133504
# 146691
# 161838
# 179504
# 194882
# 209896
# 228348
# 242963
# 258768
# 271786
# 285668
#
# Disc length: 3981 seconds
#
#
# Revision: 0
# Processed by: cddbd v1.5.2PL0 Copyright (c) Steve Scherf et al.
# Submitted via: FreeRIP 2.90 
#
DISCID=2e0f8b14
DTITLE=Gilberto e Gilmar - As 20 mais
DYEAR=1900
DGENRE=country
TTITLE0=Um pedacinho do seu coracao
TTITLE1=Parece castigo
TTITLE2=Nois gosta de muie
TTITLE3=Foto 3x4
TTITLE4=Assino com x
TTITLE5=Pra mim ela morreu
TTITLE6=Fome de amor
TTITLE7=So mais uma vez
TTITLE8=Demoro
TTITLE9=Capa de revista
TTITLE10=Tadim tadim
TTITLE11=Ta ruim mas ta bom
TTITLE12=Volta amor
TTITLE13=Luz do amanhecer
TTITLE14=Casal nota mil
TTITLE15=Mais que paixao
TTITLE16=Quebrando tudo
TTITLE17=Ta embolado o meio de campo
TTITLE18=Arrepia arrepia
TTITLE19=Musica da saudade
EXTD=
EXTT0=
EXTT1=
EXTT2=
EXTT3=
EXTT4=
EXTT5=
EXTT6=
EXTT7=
EXTT8=
EXTT9=
EXTT10=
EXTT11=
EXTT12=
EXTT13=
EXTT14=
EXTT15=
EXTT16=
EXTT17=
EXTT18=
EXTT19=
PLAYORDER=
